<?xml version="1.0" encoding="utf-8"?>
<!-- Generator: Adobe Illustrator 28.0.0, SVG Export Plug-In . SVG Version: 6.00 Build 0)  -->
<svg version="1.1" id="Layer_1" xmlns="http://www.w3.org/2000/svg" xmlns:xlink="http://www.w3.org/1999/xlink" x="0px" y="0px"
	 viewBox="0 0 622 622" style="enable-background:new 0 0 622 622;" xml:space="preserve">
<style type="text/css">
	.st0{fill:#FFFFFF;}
	.st1{fill:#7A3F3D;}
	.st2{fill:#78403E;}
</style>
<g>
	<rect x="0.5" y="0.5" class="st0" width="621" height="621"/>
	<path d="M621,1v620H1V1H621 M622,0H0v622h622V0L622,0z"/>
</g>
<g>
	<path class="st1" d="M515.56,141.77L515.56,141.77h-22.55v22.82c0,43.08-0.03,86.15,0.11,129.23c0.02,4.79-1.29,6.19-6.13,6.14
		c-22.63-0.25-45.27-0.23-67.9-0.01c-4.19,0.04-6.54-1.33-8.82-4.77c-22.31-33.64-49.91-62.25-82.83-85.6
		c-36.06-25.57-75.91-43.15-118.53-54.36c-15.37-4.04-30.73-8.34-46.36-11.05c-10.63-1.85-21.39-2.97-32.38-2.79
		c-6.8,0.12-6.81,0.03-6.81,6.8v30.73c-0.01,37.86,0,75.7-0.02,113.56c0,2.28-0.21,4.57-0.35,7.38h-5.8
		c-10.15,0-20.31-0.09-30.46,0.09c-1.43,0.03-4.03,1.29-4.07,2.08c-0.32,6.71-0.18,13.44-0.18,20.55h40.87v6.77
		c0,47.77,0,95.53,0.01,143.3c0,1.66-0.29,3.41,0.15,4.96c0.32,1.11,1.59,2.75,2.48,2.79c6.59,0.23,13.19,0.12,20.41,0.12V322.32
		h238.77c-5.81-6.7-11.09-12.46-15.94-18.55c-2.44-3.06-5.11-4-8.91-4c-68.91,0.1-137.81,0.07-206.72,0.08h-6.99V165.74
		c1.8,0.15,3.28,0.14,4.7,0.41c15.01,2.86,30.13,5.25,44.98,8.76c39.09,9.25,76.08,23.74,109.8,45.91
		c45.64,29.99,79.34,70.54,103.96,118.83c21.58,42.32,38.08,86.59,49.03,132.83v0.01c0.31,1.31,0.62,2.61,0.92,3.92
		c0.67,2.93,1.56,4.25,4.77,4.22c15.98-0.14,31.95-0.07,47.93-0.1c0.94,0,1.88-0.3,2.86-0.46v-72.12v-220.7l0,0V141.77z
		 M492.61,457.23c-0.22,0.03-0.44,0.06-0.65,0.09c-0.43,0.06-0.84,0.11-1.24,0.17c-0.01,0-0.01,0-0.01,0
		c-0.39,0.05-0.78,0.1-1.15,0.15c-0.19,0.02-0.37,0.05-0.55,0.07c-0.36,0.05-0.7,0.09-1.03,0.12c-0.33,0.04-0.65,0.07-0.95,0.1
		c-0.24,0.02-0.46,0.04-0.68,0.06c-0.2,0.02-0.39,0.03-0.58,0.04c-0.15,0.01-0.3,0.02-0.44,0.02c-0.13,0.01-0.26,0.01-0.38,0.01
		c-0.45,0.01-0.86,0.01-1.24-0.02c-0.18-0.01-0.35-0.03-0.51-0.05c-0.17-0.02-0.34-0.05-0.5-0.08c-0.12-0.02-0.24-0.05-0.36-0.08
		s-0.23-0.06-0.34-0.1c-0.05-0.02-0.1-0.04-0.16-0.06c-0.05-0.01-0.1-0.03-0.15-0.06c-0.07-0.03-0.14-0.06-0.21-0.09
		c-0.25-0.12-0.49-0.26-0.7-0.42c-0.15-0.12-0.3-0.25-0.44-0.39c-0.09-0.09-0.19-0.18-0.27-0.28c-0.13-0.15-0.26-0.32-0.37-0.5
		c-0.05-0.06-0.09-0.13-0.13-0.2c-0.62-0.97-1.13-2.3-1.68-4.07c-0.05-0.16-0.1-0.32-0.15-0.49c-0.33-1.08-0.68-2.31-1.07-3.71
		c-11.74-41.85-26.47-82.51-47.22-120.83c-0.54-0.99-0.92-2.07-1.63-3.66h64.79v111.2V457.23z"/>
	<g>
		<path class="st2" d="M311,622c-83.07,0-161.17-32.35-219.91-91.09S0,394.07,0,311S32.35,149.83,91.09,91.09S227.93,0,311,0
			s161.17,32.35,219.91,91.09S622,227.93,622,311s-32.35,161.17-91.09,219.91S394.07,622,311,622z M311,24
			C152.75,24,24,152.75,24,311c0,158.25,128.75,287,287,287c158.25,0,287-128.75,287-287C598,152.75,469.25,24,311,24z"/>
	</g>
</g>
</svg>
